<?xml version="1.0" standalone="no"?>
<!DOCTYPE svg PUBLIC "-//W3C//DTD SVG 20010904//EN"
 "http://www.w3.org/TR/2001/REC-SVG-20010904/DTD/svg10.dtd">
<svg version="1.0" xmlns="http://www.w3.org/2000/svg"
 width="488.000000pt" height="488.000000pt" viewBox="0 0 488.000000 488.000000"
 preserveAspectRatio="xMidYMid meet">
<metadata>
Created by potrace 1.11, written by Peter Selinger 2001-2013
</metadata>
<g transform="translate(0.000000,488.000000) scale(0.100000,-0.100000)"
fill="#000000" stroke="none">
<path d="M0 3851 c0 -778 3 -1030 12 -1033 14 -5 17 -26 24 -133 4 -64 1 -92
-15 -139 -21 -59 -21 -72 -21 -1303 l0 -1243 54 0 c37 0 56 4 59 14 3 8 39 22
84 31 43 10 82 21 87 26 6 5 31 9 57 9 26 0 50 4 53 9 9 13 79 20 280 26 173
6 263 -3 290 -27 6 -4 18 -8 29 -8 28 0 50 -27 44 -55 l-4 -25 1923 0 1924 0
0 2440 0 2440 -2440 0 -2440 0 0 -1029z m1861 568 c19 -16 43 -32 54 -35 11
-4 34 -16 50 -29 17 -12 102 -57 190 -100 l160 -77 101 -4 c55 -2 120 -11 144
-19 24 -8 68 -18 99 -22 31 -3 61 -12 68 -19 7 -6 41 -15 75 -19 93 -10 144
-22 234 -56 67 -25 92 -42 155 -101 41 -39 84 -77 97 -86 12 -8 22 -18 22 -23
0 -4 14 -23 30 -41 17 -18 33 -42 37 -53 3 -11 25 -49 48 -85 53 -81 115 -210
122 -256 3 -18 9 -34 14 -34 4 0 10 -26 14 -57 4 -32 13 -93 21 -136 14 -78
12 -112 -8 -154 -10 -20 -17 -22 -81 -19 -38 2 -72 8 -76 14 -3 6 -25 18 -48
27 -41 16 -79 57 -69 74 7 11 -11 26 -41 35 -18 6 -25 2 -32 -17 -10 -25 -13
-25 -110 -26 -55 -1 -112 -6 -128 -13 -15 -6 -66 -14 -113 -18 l-85 -7 93 -1
c75 -2 92 -5 92 -17 0 -17 -36 -153 -54 -200 -12 -35 -73 -105 -91 -105 -7 0
-18 -7 -26 -16 -7 -8 -20 -13 -30 -11 -11 3 -16 0 -13 -7 3 -9 -4 -11 -24 -8
-16 2 -33 -1 -36 -7 -4 -7 1 -11 13 -11 12 0 21 -4 21 -10 0 -11 -73 -67 -110
-83 -14 -7 -28 -16 -32 -22 -5 -6 -8 -5 -8 4 0 8 -6 11 -15 7 -11 -4 -19 3
-25 19 -6 15 -17 25 -30 25 -22 0 -104 -18 -137 -31 -19 -7 -23 -3 -37 37 -8
25 -13 51 -10 59 3 7 -1 24 -9 37 -9 13 -22 48 -31 77 l-16 55 32 33 c17 18
48 38 67 44 20 6 41 15 46 20 6 4 25 7 43 7 18 -1 38 4 44 10 7 7 22 12 35 12
13 0 31 4 41 9 9 5 46 21 82 35 l65 25 -60 1 c-69 2 -170 16 -140 20 11 1 23
2 28 1 11 -2 8 9 -7 25 -8 8 -24 14 -34 14 -11 0 -23 6 -26 13 -5 10 -7 10
-12 0 -3 -7 -13 -13 -22 -13 -10 0 -13 3 -6 8 5 4 10 28 10 55 0 46 -8 60 -20
35 -4 -7 -4 -2 -1 12 4 25 -9 90 -26 122 -5 10 -6 24 -3 31 3 8 -4 31 -15 51
-17 30 -18 36 -5 36 9 0 12 -5 8 -12 -5 -8 -2 -9 9 -5 10 4 17 1 17 -6 0 -7 5
-4 11 6 12 21 4 38 -15 31 -14 -5 -46 20 -46 37 0 5 -10 9 -22 10 -14 0 -17 2
-8 6 8 2 22 7 30 9 13 5 13 7 -2 15 -11 6 -14 16 -10 31 5 20 3 21 -10 10 -20
-16 -24 -9 -27 45 -2 35 2 44 22 58 21 13 37 44 41 77 1 3 4 10 9 14 14 14 7
24 -15 20 -14 -2 -22 -10 -22 -20 1 -9 -3 -16 -10 -16 -13 0 -31 39 -41 90 -9
39 -29 59 -63 60 -19 0 -21 2 -10 19 6 10 25 26 41 36 41 24 21 39 -56 40 -42
1 -62 5 -61 13 3 33 4 34 20 22 12 -11 18 -10 31 3 14 14 14 17 -1 32 -14 15
-17 15 -22 1 -7 -19 -24 -21 -24 -3 0 20 -41 36 -67 26 -13 -5 -25 -20 -29
-36 -12 -45 -30 -58 -60 -43 -13 8 -24 20 -24 28 0 8 -8 22 -18 31 -10 9 -27
29 -39 44 -25 33 -35 35 -44 10 -10 -27 33 -93 62 -93 26 0 -1 -25 -29 -28
-30 -3 -32 -1 -43 41 -9 30 -21 48 -41 60 -15 9 -33 29 -39 44 -6 15 -21 42
-35 60 -17 23 -24 44 -24 77 0 25 -4 46 -10 46 -13 0 -13 61 -1 93 9 24 12 25
49 15 21 -5 54 -23 73 -39z m119 -433 c0 -7 9 -34 20 -60 14 -31 18 -51 12
-62 -7 -13 -13 -7 -31 30 -13 25 -27 48 -32 52 -5 3 -9 16 -9 30 0 17 5 24 20
24 11 0 20 -6 20 -14z m320 -219 c0 -20 -25 1 -28 24 -2 23 -2 23 13 5 8 -11
15 -24 15 -29z m-1003 -13 c-3 -3 -12 -4 -19 -1 -8 3 -5 6 6 6 11 1 17 -2 13
-5z m1033 -25 c0 -5 -4 -9 -10 -9 -5 0 -10 7 -10 16 0 8 5 12 10 9 6 -3 10
-10 10 -16z m-1070 -29 c0 -9 -9 -25 -20 -35 -11 -10 -20 -28 -20 -40 0 -13
-7 -28 -15 -35 -8 -7 -20 -31 -26 -54 -6 -22 -15 -50 -19 -61 -5 -11 -14 -45
-21 -75 -6 -30 -19 -68 -27 -85 -19 -37 -41 -137 -42 -187 0 -20 -5 -38 -12
-40 -7 -3 -8 -9 -3 -18 4 -7 10 -44 12 -82 2 -55 0 -68 -12 -68 -8 0 -16 6
-17 13 0 6 -2 17 -3 22 -2 6 -3 16 -4 23 -2 20 -28 14 -34 -9 -4 -15 -2 -19 9
-15 8 3 14 -1 14 -8 0 -7 6 -19 14 -25 21 -18 63 -101 97 -194 17 -45 36 -95
44 -112 20 -45 64 -226 72 -295 7 -67 18 -72 21 -11 4 59 26 104 68 136 51 39
113 51 156 31 18 -9 53 -23 78 -31 24 -9 56 -23 70 -33 14 -9 29 -17 35 -17 5
0 14 -23 20 -51 12 -62 21 -73 80 -103 117 -58 145 -126 78 -187 -20 -19 -47
-34 -59 -34 -12 0 -25 -7 -28 -16 -4 -12 -13 -14 -29 -9 -12 3 -42 6 -66 5
-63 -2 -98 15 -105 51 -3 16 -12 29 -19 29 -7 0 -23 9 -35 20 -18 17 -22 18
-22 5 0 -17 -25 -21 -35 -5 -3 6 -18 10 -32 10 -14 0 -38 11 -54 25 l-30 24
-29 -31 c-17 -17 -30 -35 -30 -40 0 -5 -6 -6 -12 -2 -23 14 -49 12 -43 -4 4
-12 -1 -13 -27 -8 -17 3 -32 7 -34 9 -14 17 -54 167 -54 204 -1 26 -7 66 -15
88 -8 22 -15 49 -15 60 0 27 -43 162 -69 215 -11 24 -24 59 -27 79 -4 20 -13
45 -20 56 -8 11 -14 27 -14 37 0 10 -4 18 -10 18 -5 0 -10 7 -10 15 0 9 -7 26
-16 40 -8 13 -15 42 -16 64 0 23 -4 41 -9 41 -5 0 -7 19 -5 43 2 23 2 32 -1
20 -2 -13 -9 -23 -15 -23 -5 0 -7 -7 -4 -16 10 -26 -4 -35 -30 -18 -13 9 -24
12 -24 7 0 -5 -22 -15 -50 -22 -27 -7 -50 -17 -50 -22 0 -5 -16 -9 -35 -9 -19
0 -35 -4 -35 -8 0 -10 -75 -44 -92 -41 -25 3 -39 -1 -33 -10 3 -5 1 -12 -5
-16 -5 -3 -10 -1 -10 6 0 8 -4 9 -13 1 -10 -9 -24 -6 -54 9 -31 15 -46 18 -61
10 -16 -9 -18 -7 -14 20 3 21 0 29 -11 29 -9 0 -19 -9 -22 -20 -7 -21 -25 -28
-25 -10 0 6 -7 10 -15 10 -8 0 -15 5 -15 10 0 6 11 10 24 10 17 0 26 7 30 26
6 22 9 24 23 12 14 -11 15 -9 11 20 -3 21 0 32 8 32 18 0 56 51 50 67 -3 8 11
24 35 40 25 17 38 31 34 41 -3 7 5 28 17 45 13 17 23 37 23 43 0 7 10 24 23
39 13 15 21 29 18 32 -3 3 4 17 14 31 11 13 20 31 20 38 0 8 4 14 8 14 11 0
45 59 46 80 1 9 16 29 34 44 17 15 32 34 32 42 0 7 12 17 28 20 15 4 32 9 37
13 6 3 15 6 20 7 29 3 76 18 81 25 3 5 18 9 35 9 16 0 29 6 30 13 0 10 2 10 6
0 6 -16 47 -17 76 -2 11 7 55 14 96 18 127 10 131 10 131 -9z m674 -205 c3
-10 -1 -15 -11 -15 -9 0 -13 -3 -10 -7 8 -8 -23 -32 -42 -33 -8 0 -20 -8 -27
-17 -13 -17 -13 -17 -14 0 0 12 -8 17 -27 17 l-27 0 34 29 c21 18 42 28 52 25
10 -3 26 -1 35 5 24 14 30 13 37 -4z m36 1 c0 -3 -4 -8 -10 -11 -5 -3 -10 -1
-10 4 0 6 5 11 10 11 6 0 10 -2 10 -4z m-163 -168 c-3 -7 -5 -2 -5 12 0 14 2
19 5 13 2 -7 2 -19 0 -25z m553 -53 c0 -19 -4 -35 -10 -35 -11 0 -14 53 -3 63
11 12 13 8 13 -28z m-810 -90 c0 -9 -7 -18 -15 -21 -8 -4 -15 -15 -15 -25 0
-10 -5 -19 -12 -19 -17 0 0 -13 22 -17 10 -1 22 2 25 7 3 6 17 10 31 10 19 0
24 -5 22 -17 -1 -10 2 -20 7 -22 6 -3 12 4 14 15 5 32 28 50 68 52 22 2 45 11
56 22 20 22 22 22 55 13 20 -5 23 -10 18 -34 -6 -32 17 -42 28 -13 4 10 13 13
25 9 13 -4 23 0 30 12 6 10 11 12 11 6 0 -17 20 -16 39 2 28 25 81 20 142 -12
48 -26 55 -33 46 -48 -7 -14 -6 -21 7 -30 9 -7 16 -24 16 -38 0 -14 5 -27 12
-29 6 -2 8 -10 4 -17 -6 -9 -11 -9 -22 0 -15 13 -20 -1 -5 -16 6 -6 -17 -23
-62 -45 -40 -19 -74 -38 -77 -41 -11 -12 -119 -38 -183 -44 -37 -3 -87 -14
-110 -24 -23 -11 -76 -29 -117 -41 -105 -31 -137 -48 -192 -102 -45 -46 -67
-61 -52 -37 3 6 0 15 -7 20 -16 9 -19 137 -5 177 7 18 5 22 -13 22 -24 0 -25
3 -10 32 8 15 8 26 -2 44 -10 19 -10 29 0 50 6 15 15 24 18 20 10 -10 33 31
27 48 -8 21 14 74 42 105 17 18 28 22 48 17 16 -4 26 -2 26 5 0 6 7 9 15 6 8
-4 17 -2 20 3 9 15 25 12 25 -5z m100 -6 c0 -11 -4 -17 -10 -14 -5 3 -10 13
-10 21 0 8 5 14 10 14 6 0 10 -9 10 -21z m740 -19 c0 -5 -4 -10 -10 -10 -5 0
-10 5 -10 10 0 6 5 10 10 10 6 0 10 -4 10 -10z m2060 -175 c-18 -272 -25 -314
-70 -410 -5 -11 -21 -83 -35 -160 -31 -172 -35 -183 -101 -320 -74 -152 -221
-335 -306 -380 -26 -14 -50 -25 -53 -25 -3 0 -11 14 -16 30 -11 30 -32 39 -44
20 -3 -5 -15 -15 -25 -20 -18 -9 -17 -7 4 24 14 21 27 59 31 92 9 77 16 94 26
66 5 -12 4 -34 -1 -48 -13 -33 -13 -74 0 -74 20 0 96 91 179 215 111 167 145
227 166 295 24 78 39 110 49 110 4 0 -2 9 -15 21 -13 11 -18 18 -11 14 17 -9
15 20 -3 35 -8 6 -19 9 -25 5 -17 -10 -11 -39 10 -53 17 -10 18 -16 10 -33 -6
-11 -15 -17 -21 -14 -5 4 -6 12 -3 18 4 7 4 9 -1 5 -4 -4 -13 -4 -19 1 -8 6
-12 -2 -13 -26 -1 -20 -7 -41 -12 -46 -14 -14 -14 -30 -1 -22 6 3 10 -3 10
-15 0 -12 -4 -18 -10 -15 -6 4 -17 1 -25 -5 -8 -7 -15 -9 -15 -5 0 4 -13 -6
-29 -21 -16 -16 -43 -39 -60 -52 -17 -13 -29 -28 -26 -32 3 -5 -16 -20 -42
-34 -26 -14 -66 -44 -87 -67 -36 -39 -40 -41 -48 -23 -5 12 -6 1 -3 -30 6 -57
-20 -143 -64 -209 -15 -23 -34 -58 -41 -77 -8 -19 -17 -37 -20 -40 -4 -3 -10
-19 -13 -37 -7 -36 10 -56 25 -29 12 21 57 21 65 0 4 -11 -5 -26 -27 -45 -39
-34 -50 -36 -57 -9 -5 20 -6 20 -19 2 -11 -17 -23 -18 -91 -14 -117 6 -132 20
-178 158 -21 62 -34 117 -31 123 4 6 2 11 -5 11 -8 0 -7 7 3 23 28 42 28 64 1
76 -29 13 -59 7 -67 -15 -3 -8 -8 -45 -12 -82 -8 -90 -18 -114 -59 -136 -44
-24 -62 -16 -67 28 -2 20 0 32 6 29 5 -4 7 9 3 33 -4 21 -11 40 -17 42 -5 2
-10 20 -10 40 0 27 10 49 36 82 20 25 42 60 49 78 16 37 49 43 89 16 23 -14
25 -14 31 6 6 19 9 20 28 7 11 -7 26 -29 33 -48 10 -30 15 -34 43 -33 37 2 37
1 10 -37 -17 -24 -20 -37 -13 -67 4 -20 8 -40 8 -44 3 -20 16 -17 16 4 0 13
13 49 29 79 17 30 32 72 34 94 4 35 7 40 32 42 43 3 47 14 25 76 -11 31 -20
65 -20 76 0 22 56 61 89 61 12 0 21 6 21 15 0 8 6 15 13 15 11 0 78 47 120 85
10 9 28 20 40 25 28 13 56 30 81 53 11 9 25 17 31 17 6 0 21 11 33 25 13 15
33 25 49 25 15 0 37 9 49 21 28 26 70 17 79 -18 9 -36 29 -23 35 23 4 32 9 38
25 36 11 -2 30 -3 43 -3 13 1 21 -3 17 -8 -3 -5 0 -13 6 -17 15 -9 30 16 25
39 -3 11 -2 16 1 13 4 -3 16 9 28 27 29 44 55 174 55 282 1 59 6 99 15 115 8
14 14 37 15 51 0 23 9 43 16 36 2 -2 -1 -66 -6 -142z m-2113 109 c-3 -3 -12
-4 -19 -1 -8 3 -5 6 6 6 11 1 17 -2 13 -5z m30 -30 c-3 -3 -12 -4 -19 -1 -8 3
-5 6 6 6 11 1 17 -2 13 -5z m-147 -44 c0 -5 -5 -10 -11 -10 -5 0 -7 5 -4 10 3
6 8 10 11 10 2 0 4 -4 4 -10z m1096 -40 c16 -6 40 -26 53 -45 15 -22 32 -35
45 -35 40 0 77 -47 105 -132 15 -46 -3 -122 -27 -113 -8 3 -12 0 -9 -7 2 -7
11 -12 21 -10 10 2 16 -4 16 -17 0 -28 -11 -52 -21 -46 -4 3 -6 -18 -3 -47 4
-40 3 -49 -5 -38 -8 11 -9 7 -5 -18 5 -22 1 -47 -11 -75 -19 -43 -62 -97 -77
-97 -5 0 -21 -9 -36 -20 -15 -10 -39 -21 -54 -23 -36 -4 -48 -17 -17 -18 22
-1 22 -2 4 -8 -11 -4 -37 -15 -58 -26 -33 -17 -39 -17 -47 -5 -11 17 -26 5
-32 -25 -2 -12 -10 -19 -21 -17 -9 2 -17 -2 -17 -8 0 -5 -22 -10 -51 -10 -40
0 -61 6 -95 30 -24 16 -44 25 -44 20 0 -5 5 -12 10 -15 6 -4 8 -11 4 -16 -3
-5 7 -35 21 -66 19 -39 27 -73 28 -112 1 -68 -19 -141 -37 -141 -9 0 -12 -7
-9 -18 7 -30 -50 -72 -99 -72 -69 0 -160 29 -194 62 -42 40 -68 130 -59 202 8
54 35 126 47 126 5 0 8 9 8 20 0 11 4 20 9 20 5 0 11 10 15 23 6 21 7 20 23
-11 18 -38 30 -32 35 18 2 28 7 35 23 33 16 -1 20 5 22 30 1 18 7 41 12 52 5
11 14 33 18 49 6 19 28 43 61 66 35 24 59 50 74 80 12 25 27 52 34 60 7 8 20
35 30 60 9 25 25 56 34 70 9 14 25 47 36 74 10 26 31 58 47 69 15 11 27 26 27
32 0 16 68 85 94 95 28 12 38 12 72 0z m-2866 -104 c0 -11 -19 -15 -25 -6 -3
5 1 10 9 10 9 0 16 -2 16 -4z m2600 -78 c0 -5 -7 -8 -15 -8 -8 0 -15 -6 -15
-12 0 -8 -16 -14 -40 -16 -22 -1 -40 0 -40 3 0 12 37 41 48 37 7 -2 12 1 12 6
0 26 49 15 50 -10z m-1273 -30 c-3 -7 -5 -2 -5 12 0 14 2 19 5 13 2 -7 2 -19
0 -25z m-147 -23 c0 -18 17 -20 23 -2 3 9 9 9 26 -1 12 -7 21 -8 21 -2 0 5 7
10 15 10 20 0 19 -34 -1 -54 -20 -21 -33 -20 -42 2 -8 19 -16 22 -82 30 l-45
5 35 13 c46 17 50 17 50 -1z m157 -47 c-3 -8 -6 -5 -6 6 -1 11 2 17 5 13 3 -3
4 -12 1 -19z m317 -88 c83 -13 91 -17 75 -36 -8 -10 -8 -14 0 -14 18 0 111
-43 111 -52 0 -4 10 -8 23 -8 13 0 28 -5 34 -11 5 -5 41 -12 79 -14 38 -1 77
-6 87 -10 9 -4 17 -3 17 3 0 6 -6 12 -12 15 -10 3 -10 7 1 20 17 22 37 22 50
0 6 -10 11 -14 11 -9 0 15 40 -26 40 -41 0 -7 -7 -16 -15 -19 -11 -5 -12 -11
-5 -24 19 -35 12 -48 -22 -46 -29 1 -33 -2 -30 -23 1 -13 -3 -30 -9 -37 -16
-19 -99 -18 -126 1 -12 9 -39 17 -60 18 -37 2 -37 2 -34 -35 2 -36 2 -37 -26
-29 -15 5 -45 16 -65 25 -52 22 -89 22 -81 -1 4 -10 13 -24 20 -31 7 -8 11
-17 8 -22 -9 -15 -79 11 -120 45 -73 60 -82 70 -124 134 -46 72 -52 114 -21
154 11 14 20 32 20 40 0 26 42 28 174 7z m-184 -250 c0 -6 9 -29 19 -50 22
-45 9 -53 -26 -17 -18 20 -28 46 -24 70 2 11 31 8 31 -3z m1644 -36 c4 -9 4
-31 0 -50 -6 -32 -6 -32 -60 -31 -44 1 -54 4 -54 18 0 10 15 28 33 40 17 13
34 27 35 31 6 14 40 8 46 -8z m-1354 -104 c0 -5 -4 -10 -10 -10 -5 0 -10 5
-10 10 0 6 5 10 10 10 6 0 10 -4 10 -10z m47 -6 c-3 -3 -12 -4 -19 -1 -8 3 -5
6 6 6 11 1 17 -2 13 -5z m-1422 -339 l50 -7 -30 -13 -30 -13 43 -1 c30 -1 42
-5 42 -16 0 -11 11 -15 38 -15 20 0 46 -7 56 -15 11 -8 14 -15 7 -15 -7 0 -9
-4 -6 -10 9 -14 33 -12 38 3 2 6 3 3 1 -9 -3 -17 4 -23 39 -34 23 -7 54 -21
69 -31 15 -11 30 -19 35 -18 27 5 52 -5 81 -30 32 -28 42 -51 22 -51 -5 0 -10
-7 -10 -15 0 -8 5 -15 10 -15 6 0 15 -11 20 -25 6 -16 17 -25 31 -25 18 0 19
-3 9 -15 -6 -8 -9 -19 -5 -25 4 -6 1 -17 -5 -25 -10 -12 -10 -15 0 -15 6 0 26
-10 43 -22 37 -26 103 -58 197 -94 66 -26 120 -73 120 -104 0 -18 -25 -43 -80
-79 -19 -13 -51 -43 -70 -67 -42 -52 -119 -105 -180 -125 -50 -16 -188 -18
-371 -7 -186 12 -213 30 -224 144 -7 78 -9 71 50 182 19 35 86 104 127 132 45
30 48 40 11 35 -41 -6 -83 5 -83 20 0 9 -6 12 -15 9 -21 -8 -19 -32 3 -37 13
-4 11 -5 -5 -6 -13 0 -23 4 -23 9 0 6 -10 10 -23 10 -12 0 -28 9 -34 19 -7 11
-29 22 -55 26 -24 4 -59 20 -78 35 -19 15 -44 29 -54 31 -10 2 -24 13 -30 24
-16 28 -33 45 -45 45 -22 0 -41 46 -41 101 0 48 3 57 20 62 29 7 27 46 -2 49
-13 1 9 4 47 7 53 5 70 10 70 21 0 10 14 17 47 20 26 3 50 9 53 12 4 3 21 2
38 -2 18 -5 54 -11 82 -15z m1500 -86 c38 -30 29 -63 -40 -146 -31 -38 -58
-78 -61 -90 -4 -13 4 -38 20 -66 32 -54 34 -109 6 -140 -30 -31 -138 -36 -212
-9 -29 10 -68 20 -87 20 -19 0 -47 6 -62 12 -21 9 -37 9 -59 2 -17 -6 -37 -9
-45 -6 -7 3 -19 -4 -25 -17 -10 -17 -14 -19 -21 -8 -20 31 -6 121 17 112 8 -3
14 0 14 6 0 6 -3 10 -7 9 -5 -1 -25 2 -46 6 -30 7 -35 11 -26 22 9 11 7 14 -9
14 -40 0 -52 11 -52 47 0 42 13 68 55 110 18 17 42 47 54 66 32 53 102 79 153
59 9 -4 44 -33 78 -65 49 -45 67 -56 84 -51 54 17 88 35 128 72 75 68 99 75
143 41z m490 -116 c11 -19 20 -54 21 -77 1 -22 3 -57 4 -76 3 -56 2 -60 -29
-60 -25 0 -33 7 -50 43 -23 47 -29 163 -11 197 14 26 43 15 65 -27z m1015 -54
c0 -10 -7 -19 -15 -19 -9 0 -15 9 -15 25 0 18 4 23 15 19 8 -4 15 -15 15 -25z
m-1456 -75 c2 -16 7 -41 11 -55 4 -16 2 -30 -4 -34 -7 -4 -8 -12 -1 -24 5 -10
11 -34 13 -54 4 -30 1 -36 -19 -40 -31 -6 -38 3 -16 20 15 13 15 13 -6 3 -30
-15 -43 -5 -36 28 4 21 3 24 -5 12 -6 -8 -11 -10 -12 -5 0 6 -4 1 -9 -10 -7
-15 -9 -16 -9 -4 -1 9 6 22 14 29 8 7 15 21 15 32 0 17 -3 18 -15 8 -18 -15
-20 1 -3 18 17 17 21 55 6 47 -7 -3 -3 2 10 11 12 9 22 22 22 29 0 8 8 15 18
17 22 5 22 6 26 -28z m275 -70 c22 -9 43 -24 46 -34 8 -26 3 -100 -7 -100 -4
0 -8 -12 -8 -26 0 -23 -1 -24 -16 -10 -23 24 -37 20 -61 -18 -27 -42 -19 -53
14 -20 30 30 37 30 62 -2 26 -33 28 -95 4 -131 l-17 -26 24 13 c14 7 31 20 38
29 11 14 12 14 10 -5 -2 -11 3 -28 11 -37 11 -14 11 -26 1 -67 -7 -28 -15 -48
-18 -45 -3 3 -11 -4 -18 -16 l-12 -22 -6 21 c-4 13 -16 22 -27 22 -14 0 -18
-4 -12 -12 21 -35 1 -88 -33 -88 -8 0 -39 -11 -70 -25 -71 -31 -136 -33 -165
-4 -11 11 -18 27 -15 35 4 10 -2 14 -17 13 -12 0 -16 -3 -9 -6 41 -16 -22 -53
-68 -38 -27 9 -27 59 1 105 20 33 21 38 9 122 -14 95 -7 126 33 156 9 7 17 19
17 26 0 14 33 34 69 41 35 6 109 60 98 71 -16 16 59 87 100 94 2 0 21 -7 42
-16z m-342 -640 c-3 -3 -12 -4 -19 -1 -8 3 -5 6 6 6 11 1 17 -2 13 -5z"/>
<path d="M2350 3840 c0 -5 5 -10 11 -10 5 0 7 5 4 10 -3 6 -8 10 -11 10 -2 0
-4 -4 -4 -10z"/>
<path d="M2443 3578 c2 -7 10 -13 17 -13 7 0 15 6 18 13 2 7 -5 12 -18 12 -13
0 -20 -5 -17 -12z"/>
<path d="M2440 3540 c-9 -6 -10 -10 -3 -10 6 0 15 5 18 10 8 12 4 12 -15 0z"/>
<path d="M3000 3250 c0 -5 5 -10 11 -10 5 0 7 5 4 10 -3 6 -8 10 -11 10 -2 0
-4 -4 -4 -10z"/>
<path d="M2930 3240 c0 -5 4 -10 9 -10 6 0 13 5 16 10 3 6 -1 10 -9 10 -9 0
-16 -4 -16 -10z"/>
<path d="M2950 3159 c0 -11 5 -17 10 -14 6 3 10 13 10 21 0 8 -4 14 -10 14 -5
0 -10 -9 -10 -21z"/>
<path d="M2610 3080 c0 -5 5 -10 11 -10 5 0 7 5 4 10 -3 6 -8 10 -11 10 -2 0
-4 -4 -4 -10z"/>
<path d="M2500 2670 c0 -5 7 -10 15 -10 8 0 15 5 15 10 0 6 -7 10 -15 10 -8 0
-15 -4 -15 -10z"/>
<path d="M976 3013 c9 -38 14 -42 14 -10 0 14 -5 29 -10 32 -7 4 -8 -3 -4 -22z"/>
<path d="M1470 3094 c0 -8 5 -12 10 -9 6 3 10 10 10 16 0 5 -4 9 -10 9 -5 0
-10 -7 -10 -16z"/>
<path d="M2070 3076 c0 -8 5 -18 10 -21 6 -3 10 3 10 14 0 12 -4 21 -10 21 -5
0 -10 -6 -10 -14z"/>
<path d="M1550 3050 c0 -5 5 -10 11 -10 5 0 7 5 4 10 -3 6 -8 10 -11 10 -2 0
-4 -4 -4 -10z"/>
<path d="M4244 2535 c-5 -19 -1 -30 12 -41 18 -14 18 -15 -5 -8 -21 5 -22 4
-10 -9 8 -9 18 -11 24 -7 15 13 38 80 30 88 -4 4 -10 1 -12 -6 -4 -10 -8 -10
-19 -2 -10 9 -15 6 -20 -15z"/>
<path d="M3606 2052 c-12 -11 -6 -52 7 -52 16 0 37 20 37 36 0 13 -35 26 -44
16z"/>
<path d="M3435 2610 c3 -5 11 -10 16 -10 6 0 7 5 4 10 -3 6 -11 10 -16 10 -6
0 -7 -4 -4 -10z"/>
<path d="M3345 2430 c-3 -5 -1 -10 4 -10 6 0 11 5 11 10 0 6 -2 10 -4 10 -3 0
-8 -4 -11 -10z"/>
<path d="M3268 2306 c-21 -16 -24 -36 -5 -36 14 0 47 31 47 43 0 11 -24 7 -42
-7z"/>
<path d="M2761 2144 c0 -11 3 -14 6 -6 3 7 2 16 -1 19 -3 4 -6 -2 -5 -13z"/>
<path d="M1296 1482 c-13 -12 -5 -22 19 -22 14 0 25 4 25 9 0 10 -36 21 -44
13z"/>
<path d="M1230 1470 c0 -5 5 -10 10 -10 6 0 10 5 10 10 0 6 -4 10 -10 10 -5 0
-10 -4 -10 -10z"/>
<path d="M2565 1410 c-4 -6 4 -10 19 -10 14 0 26 -5 26 -11 0 -5 4 -7 10 -4 5
3 15 -5 22 -19 6 -14 17 -26 25 -26 23 0 27 30 6 51 -21 22 -98 35 -108 19z"/>
</g>
</svg>
